<svg xmlns="http://www.w3.org/2000/svg" width="620" height="360" viewBox="0 0 620 360" role="img" aria-label="GIS &amp; Computer Vision: QGIS automation &amp; PyQGIS tooling; Raster, GeoTIFF &amp; georeferencing workflows; UAV / satellite object detection (YOLO); Export detections to SHP &amp; GeoPackage"><title>GIS &amp; Computer Vision: QGIS automation &amp; PyQGIS tooling; Raster, GeoTIFF &amp; georeferencing workflows; UAV / satellite object detection (YOLO); Export detections to SHP &amp; GeoPackage</title><defs><linearGradient id="bdgis" gradientUnits="userSpaceOnUse" x1="0" y1="0" x2="620" y2="360"><stop offset="0" stop-color="#c6ff3d"/><stop offset=".45" stop-color="#c6ff3d" stop-opacity="0"/><stop offset=".55" stop-color="#f5f3ff" stop-opacity="0"/><stop offset="1" stop-color="#f5f3ff"/><animateTransform attributeName="gradientTransform" type="rotate" from="0 310 180" to="360 310 180" dur="6s" repeatCount="indefinite"/></linearGradient>
<radialGradient id="glgis" cx="85%" cy="15%" r="60%"><stop offset="0" stop-color="#c6ff3d" stop-opacity=".22"/><stop offset="1" stop-color="#c6ff3d" stop-opacity="0"/></radialGradient>
<pattern id="dtgis" width="18" height="18" patternUnits="userSpaceOnUse"><circle cx="1" cy="1" r="1" fill="#fff" opacity=".07"/></pattern>
<clipPath id="cfgis"><rect x="1" y="1" width="618" height="358" rx="18"/></clipPath></defs><style>.sans{font-family:'Segoe UI', 'Inter', 'Helvetica Neue', Arial, sans-serif}.mono{font-family:'JetBrains Mono', 'Cascadia Code', Consolas, 'Courier New', monospace}
.tt{font-family:'Segoe UI', 'Inter', 'Helvetica Neue', Arial, sans-serif;font-weight:800;font-size:30px;fill:#f5f3ff}
.tg{font-size:12px;letter-spacing:3px;fill:#c6ff3d}
.bl{font-family:'Segoe UI', 'Inter', 'Helvetica Neue', Arial, sans-serif;font-size:16px;fill:#cfcbe3}
.bi{font-size:14px;fill:#c6ff3d}
.ch{font-size:11px;letter-spacing:1.5px;fill:#f5f3ff}
.ul{transform-box:fill-box;transform-origin:left;animation:ul 4s cubic-bezier(.7,0,.2,1) infinite}@keyframes ul{0%{transform:scaleX(0)}30%,80%{transform:scaleX(1)}100%{transform:scaleX(0);transform-origin:right}}
.b{opacity:0;animation:bin .6s ease-out both}@keyframes bin{from{opacity:0;transform:translateX(-14px)}to{opacity:1;transform:translateX(0)}}
.scanv{animation:sv 2.4s ease-in-out infinite alternate}@keyframes sv{to{transform:translateY(124px)}}
.bx{opacity:0;animation:bx 3.3s steps(1) infinite}@keyframes bx{0%{opacity:0}10%,70%{opacity:1}72%{opacity:0}74%{opacity:1}80%,100%{opacity:0}}</style>
<g clip-path="url(#cfgis)"><rect width="620" height="360" fill="#0c0b16"/><rect width="620" height="360" fill="url(#glgis)"/><rect width="620" height="360" fill="url(#dtgis)"/>
<rect x="410" y="18" width="20" height="20" fill="#00e5ff" opacity="0.24"/><rect x="431" y="18" width="20" height="20" fill="#00e5ff" opacity="0.11"/><rect x="452" y="18" width="20" height="20" fill="#00e5ff" opacity="0.09"/><rect x="473" y="18" width="20" height="20" fill="#00e5ff" opacity="0.06"/><rect x="494" y="18" width="20" height="20" fill="#00e5ff" opacity="0.09"/><rect x="515" y="18" width="20" height="20" fill="#00e5ff" opacity="0.15"/><rect x="536" y="18" width="20" height="20" fill="#00e5ff" opacity="0.06"/><rect x="557" y="18" width="20" height="20" fill="#00e5ff" opacity="0.25"/><rect x="578" y="18" width="20" height="20" fill="#00e5ff" opacity="0.18"/><rect x="410" y="39" width="20" height="20" fill="#00e5ff" opacity="0.19"/><rect x="431" y="39" width="20" height="20" fill="#00e5ff" opacity="0.21"/><rect x="452" y="39" width="20" height="20" fill="#00e5ff" opacity="0.12"/><rect x="473" y="39" width="20" height="20" fill="#00e5ff" opacity="0.20"/><rect x="494" y="39" width="20" height="20" fill="#00e5ff" opacity="0.23"/><rect x="515" y="39" width="20" height="20" fill="#00e5ff" opacity="0.16"/><rect x="536" y="39" width="20" height="20" fill="#00e5ff" opacity="0.20"/><rect x="557" y="39" width="20" height="20" fill="#00e5ff" opacity="0.13"/><rect x="578" y="39" width="20" height="20" fill="#00e5ff" opacity="0.15"/><rect x="410" y="60" width="20" height="20" fill="#00e5ff" opacity="0.20"/><rect x="431" y="60" width="20" height="20" fill="#00e5ff" opacity="0.24"/><rect x="452" y="60" width="20" height="20" fill="#00e5ff" opacity="0.26"/><rect x="473" y="60" width="20" height="20" fill="#00e5ff" opacity="0.14"/><rect x="494" y="60" width="20" height="20" fill="#00e5ff" opacity="0.12"/><rect x="515" y="60" width="20" height="20" fill="#00e5ff" opacity="0.21"/><rect x="536" y="60" width="20" height="20" fill="#00e5ff" opacity="0.10"/><rect x="557" y="60" width="20" height="20" fill="#00e5ff" opacity="0.21"/><rect x="578" y="60" width="20" height="20" fill="#00e5ff" opacity="0.16"/><rect x="410" y="81" width="20" height="20" fill="#00e5ff" opacity="0.12"/><rect x="431" y="81" width="20" height="20" fill="#00e5ff" opacity="0.14"/><rect x="452" y="81" width="20" height="20" fill="#00e5ff" opacity="0.04"/><rect x="473" y="81" width="20" height="20" fill="#00e5ff" opacity="0.15"/><rect x="494" y="81" width="20" height="20" fill="#00e5ff" opacity="0.16"/><rect x="515" y="81" width="20" height="20" fill="#00e5ff" opacity="0.21"/><rect x="536" y="81" width="20" height="20" fill="#00e5ff" opacity="0.06"/><rect x="557" y="81" width="20" height="20" fill="#00e5ff" opacity="0.22"/><rect x="578" y="81" width="20" height="20" fill="#00e5ff" opacity="0.13"/><rect x="410" y="102" width="20" height="20" fill="#00e5ff" opacity="0.11"/><rect x="431" y="102" width="20" height="20" fill="#00e5ff" opacity="0.16"/><rect x="452" y="102" width="20" height="20" fill="#00e5ff" opacity="0.05"/><rect x="473" y="102" width="20" height="20" fill="#00e5ff" opacity="0.18"/><rect x="494" y="102" width="20" height="20" fill="#00e5ff" opacity="0.10"/><rect x="515" y="102" width="20" height="20" fill="#00e5ff" opacity="0.16"/><rect x="536" y="102" width="20" height="20" fill="#00e5ff" opacity="0.07"/><rect x="557" y="102" width="20" height="20" fill="#00e5ff" opacity="0.25"/><rect x="578" y="102" width="20" height="20" fill="#00e5ff" opacity="0.23"/><rect x="410" y="123" width="20" height="20" fill="#00e5ff" opacity="0.24"/><rect x="431" y="123" width="20" height="20" fill="#00e5ff" opacity="0.12"/><rect x="452" y="123" width="20" height="20" fill="#00e5ff" opacity="0.08"/><rect x="473" y="123" width="20" height="20" fill="#00e5ff" opacity="0.18"/><rect x="494" y="123" width="20" height="20" fill="#00e5ff" opacity="0.15"/><rect x="515" y="123" width="20" height="20" fill="#00e5ff" opacity="0.05"/><rect x="536" y="123" width="20" height="20" fill="#00e5ff" opacity="0.21"/><rect x="557" y="123" width="20" height="20" fill="#00e5ff" opacity="0.25"/><rect x="578" y="123" width="20" height="20" fill="#00e5ff" opacity="0.04"/><g class="bx" style="animation-delay:0s"><rect x="430" y="44" width="50" height="36" fill="none" stroke="#c6ff3d" stroke-width="2"/><rect x="430" y="30" width="62" height="14" fill="#c6ff3d"/><text x="433" y="41" class="mono" font-size="10" fill="#000">cage .93</text></g><g class="bx" style="animation-delay:1.2s"><rect x="520" y="84" width="56" height="34" fill="none" stroke="#c6ff3d" stroke-width="2"/><rect x="520" y="70" width="62" height="14" fill="#c6ff3d"/><text x="523" y="81" class="mono" font-size="10" fill="#000">cage .88</text></g><g class="bx" style="animation-delay:2.2s"><rect x="470" y="104" width="34" height="26" fill="none" stroke="#c6ff3d" stroke-width="2"/><rect x="470" y="90" width="62" height="14" fill="#c6ff3d"/><text x="473" y="101" class="mono" font-size="10" fill="#000">cage .91</text></g>
<rect x="410" y="18" width="188" height="2" fill="#c6ff3d" class="scanv"/><text x="505" y="160" text-anchor="middle" class="mono" font-size="11" fill="#8a86a3">GeoTIFF → YOLO → SHP</text>
<text x="30" y="46" class="mono tg">VECTOR.03 // SEE</text>
<text x="28" y="92" class="tt">GIS &amp; Computer Vision</text>
<rect x="30" y="108" width="90" height="3" fill="#c6ff3d" class="ul"/>
<g class="b" style="animation-delay:0.3s"><text x="30" y="170" class="mono bi">▸</text><text x="50" y="170" class="bl">QGIS automation &amp; PyQGIS tooling</text></g><g class="b" style="animation-delay:0.44999999999999996s"><text x="30" y="206" class="mono bi">▸</text><text x="50" y="206" class="bl">Raster, GeoTIFF &amp; georeferencing workflows</text></g><g class="b" style="animation-delay:0.6s"><text x="30" y="242" class="mono bi">▸</text><text x="50" y="242" class="bl">UAV / satellite object detection (YOLO)</text></g><g class="b" style="animation-delay:0.75s"><text x="30" y="278" class="mono bi">▸</text><text x="50" y="278" class="bl">Export detections to SHP &amp; GeoPackage</text></g><rect x="28" y="310" width="52.4" height="24" rx="12" fill="none" stroke="#c6ff3d" stroke-opacity=".6"/><text x="39" y="326.5" class="mono ch">QGIS</text><rect x="88.4" y="310" width="67.6" height="24" rx="12" fill="none" stroke="#c6ff3d" stroke-opacity=".6"/><text x="99.4" y="326.5" class="mono ch">PYQGIS</text><rect x="164" y="310" width="52.4" height="24" rx="12" fill="none" stroke="#c6ff3d" stroke-opacity=".6"/><text x="175" y="326.5" class="mono ch">YOLO</text><rect x="224.4" y="310" width="75.19999999999999" height="24" rx="12" fill="none" stroke="#c6ff3d" stroke-opacity=".6"/><text x="235.4" y="326.5" class="mono ch">GEOTIFF</text></g>
<rect x="1" y="1" width="618" height="358" rx="18" fill="none" stroke="url(#bdgis)" stroke-width="2"/></svg>
