<svg xmlns="http://www.w3.org/2000/svg" width="1280" height="130" viewBox="0 0 1280 130" role="img" aria-label="06 TRAJECTORY — // github direction"><title>06 TRAJECTORY — // github direction</title><defs><linearGradient id="g06" x1="0" x2="1"><stop offset="0" stop-color="#ff2e88"/><stop offset="1" stop-color="#f5f3ff"/></linearGradient>
<linearGradient id="b06" x1="0" x2="1"><stop offset="0" stop-color="#ff2e88" stop-opacity="0"/><stop offset=".8" stop-color="#ff2e88"/><stop offset="1" stop-color="#fff"/></linearGradient>
<clipPath id="f06"><rect width="1280" height="130" rx="14"/></clipPath></defs><style>.sans{font-family:'Segoe UI', 'Inter', 'Helvetica Neue', Arial, sans-serif}.mono{font-family:'JetBrains Mono', 'Cascadia Code', Consolas, 'Courier New', monospace}
.num{font-family:'Segoe UI', 'Inter', 'Helvetica Neue', Arial, sans-serif;font-weight:900;font-size:104px;fill:none;stroke:url(#g06);stroke-width:1.6;stroke-dasharray:420;animation:draw 6s ease-in-out infinite}
@keyframes draw{0%{stroke-dashoffset:420}40%,85%{stroke-dashoffset:0}100%{stroke-dashoffset:-420}}
.t{font-family:'Segoe UI', 'Inter', 'Helvetica Neue', Arial, sans-serif;font-weight:900;font-size:44px;letter-spacing:3px}
.s{font-size:14px;letter-spacing:3px;fill:#8a86a3}
.gc{mix-blend-mode:screen;animation:gc 4s steps(1) 1.58s infinite}.gm{mix-blend-mode:screen;animation:gm 4s steps(1) 1.58s infinite}
@keyframes gc{0%,80%,86%{transform:translate(-1.5px,0)}81%{transform:translate(-9px,1px)}83%{transform:translate(6px,-1px)}}
@keyframes gm{0%,80%,86%{transform:translate(1.5px,0)}81%{transform:translate(9px,-1px)}83%{transform:translate(-7px,1px)}}
.bar{animation:bar 3.2s cubic-bezier(.7,0,.3,1) infinite}@keyframes bar{from{transform:translateX(-300px)}to{transform:translateX(1280px)}}
.blk{animation:blk 1.1s steps(1) infinite}@keyframes blk{50%{opacity:0}}
.scan{animation:sc 2.4s ease-in-out infinite alternate}@keyframes sc{from{transform:translateY(0)}to{transform:translateY(126px)}}</style>
<g clip-path="url(#f06)"><rect width="1280" height="130" fill="#0c0b16"/>
<rect x="0" y="0" width="1280" height="2" fill="#ff2e88" opacity=".12" class="scan"/>
<text x="24" y="104" class="num">06</text>
<text x="200" y="76" class="t gc" fill="#00e5ff" opacity="0.7">TRAJECTORY</text><text x="200" y="76" class="t gm" fill="#ff2e88" opacity="0.7">TRAJECTORY</text><text x="200" y="76" class="t " fill="#f5f3ff" opacity="1">TRAJECTORY</text>
<text x="202" y="104" class="mono s">// github direction</text>
<rect x="860" y="52" width="1.5" height="18" fill="#8a86a3" opacity=".5"/><rect x="870" y="60" width="1.5" height="10" fill="#8a86a3" opacity=".5"/><rect x="880" y="60" width="1.5" height="10" fill="#8a86a3" opacity=".5"/><rect x="890" y="60" width="1.5" height="10" fill="#8a86a3" opacity=".5"/><rect x="900" y="60" width="1.5" height="10" fill="#8a86a3" opacity=".5"/><rect x="910" y="52" width="1.5" height="18" fill="#8a86a3" opacity=".5"/><rect x="920" y="60" width="1.5" height="10" fill="#8a86a3" opacity=".5"/><rect x="930" y="60" width="1.5" height="10" fill="#8a86a3" opacity=".5"/><rect x="940" y="60" width="1.5" height="10" fill="#8a86a3" opacity=".5"/><rect x="950" y="60" width="1.5" height="10" fill="#8a86a3" opacity=".5"/><rect x="960" y="52" width="1.5" height="18" fill="#8a86a3" opacity=".5"/><rect x="970" y="60" width="1.5" height="10" fill="#8a86a3" opacity=".5"/><rect x="980" y="60" width="1.5" height="10" fill="#8a86a3" opacity=".5"/><rect x="990" y="60" width="1.5" height="10" fill="#8a86a3" opacity=".5"/><rect x="1000" y="60" width="1.5" height="10" fill="#8a86a3" opacity=".5"/><rect x="1010" y="52" width="1.5" height="18" fill="#8a86a3" opacity=".5"/><rect x="1020" y="60" width="1.5" height="10" fill="#8a86a3" opacity=".5"/><rect x="1030" y="60" width="1.5" height="10" fill="#8a86a3" opacity=".5"/><rect x="1040" y="60" width="1.5" height="10" fill="#8a86a3" opacity=".5"/><rect x="1050" y="60" width="1.5" height="10" fill="#8a86a3" opacity=".5"/><rect x="1060" y="52" width="1.5" height="18" fill="#8a86a3" opacity=".5"/><rect x="1070" y="60" width="1.5" height="10" fill="#8a86a3" opacity=".5"/><rect x="1080" y="60" width="1.5" height="10" fill="#8a86a3" opacity=".5"/><rect x="1090" y="60" width="1.5" height="10" fill="#8a86a3" opacity=".5"/><rect x="1100" y="60" width="1.5" height="10" fill="#8a86a3" opacity=".5"/><rect x="1110" y="52" width="1.5" height="18" fill="#8a86a3" opacity=".5"/><rect x="1120" y="60" width="1.5" height="10" fill="#8a86a3" opacity=".5"/><rect x="1130" y="60" width="1.5" height="10" fill="#8a86a3" opacity=".5"/><rect x="1140" y="60" width="1.5" height="10" fill="#8a86a3" opacity=".5"/><rect x="1150" y="60" width="1.5" height="10" fill="#8a86a3" opacity=".5"/><rect x="1160" y="52" width="1.5" height="18" fill="#8a86a3" opacity=".5"/><rect x="1170" y="60" width="1.5" height="10" fill="#8a86a3" opacity=".5"/><rect x="1180" y="60" width="1.5" height="10" fill="#8a86a3" opacity=".5"/><rect x="1190" y="60" width="1.5" height="10" fill="#8a86a3" opacity=".5"/><rect x="1200" y="60" width="1.5" height="10" fill="#8a86a3" opacity=".5"/><rect x="1210" y="52" width="1.5" height="18" fill="#8a86a3" opacity=".5"/><rect x="1220" y="60" width="1.5" height="10" fill="#8a86a3" opacity=".5"/><rect x="1230" y="60" width="1.5" height="10" fill="#8a86a3" opacity=".5"/><rect x="1240" y="60" width="1.5" height="10" fill="#8a86a3" opacity=".5"/><rect x="1250" y="60" width="1.5" height="10" fill="#8a86a3" opacity=".5"/>
<rect x="1200" y="44" width="14" height="30" fill="#ff2e88" class="blk"/>
<rect x="0" y="127" width="1280" height="1" fill="#fff" opacity=".08"/>
<rect x="0" y="127" width="300" height="2" fill="url(#b06)" class="bar"/></g></svg>
